<?xml version="1.0" standalone="no"?>
<svg viewBox="0 0 200 200" xmlns="http://www.w3.org/2000/svg">
  <path fill="#FFE493" d="M44,-68.7C52.9,-62.7,53.2,-43.6,60.8,-27.6C68.5,-11.5,83.5,1.3,81.7,11.5C79.9,21.8,61.3,29.3,49.5,42.9C37.7,56.4,32.9,75.9,23.6,77.2C14.3,78.5,0.6,61.5,-13.3,53.6C-27.1,45.7,-41.2,46.8,-52.6,41.3C-64,35.8,-72.9,23.8,-76.8,9.8C-80.6,-4.1,-79.5,-19.9,-69.6,-27.7C-59.6,-35.4,-40.9,-35,-27.9,-39C-14.8,-43.1,-7.4,-51.6,5.1,-59.5C17.5,-67.3,35.1,-74.6,44,-68.7Z" transform="translate(100 100)" />
</svg>
